<mxfile host="app.diagrams.net" modified="2022-04-13T04:21:44.966Z" agent="5.0 (Macintosh; Intel Mac OS X 10_15_7) AppleWebKit/537.36 (KHTML, like Gecko) Chrome/100.0.4896.75 Safari/537.36" etag="jpEX17Xa0wEQtVTXw-zc" version="17.4.1" type="github">
  <diagram id="C8zfeUm68QXaKlkgzb-8" name="Page-1">
    <mxGraphModel dx="3252" dy="1588" grid="0" gridSize="10" guides="1" tooltips="1" connect="1" arrows="1" fold="1" page="0" pageScale="1" pageWidth="827" pageHeight="1169" math="0" shadow="0">
      <root>
        <mxCell id="0" />
        <mxCell id="1" parent="0" />
        <mxCell id="Xs8UQ6cBIhTteWRhh0SS-10" style="edgeStyle=orthogonalEdgeStyle;rounded=0;orthogonalLoop=1;jettySize=auto;html=1;entryX=0;entryY=0.5;entryDx=0;entryDy=0;" parent="1" source="Xs8UQ6cBIhTteWRhh0SS-1" target="Xs8UQ6cBIhTteWRhh0SS-9" edge="1">
          <mxGeometry relative="1" as="geometry" />
        </mxCell>
        <mxCell id="Xs8UQ6cBIhTteWRhh0SS-1" value="开始" style="rounded=1;whiteSpace=wrap;html=1;" parent="1" vertex="1">
          <mxGeometry x="10" y="200" width="120" height="60" as="geometry" />
        </mxCell>
        <mxCell id="Xs8UQ6cBIhTteWRhh0SS-14" value="" style="edgeStyle=orthogonalEdgeStyle;rounded=0;orthogonalLoop=1;jettySize=auto;html=1;" parent="1" source="Xs8UQ6cBIhTteWRhh0SS-9" target="Xs8UQ6cBIhTteWRhh0SS-11" edge="1">
          <mxGeometry relative="1" as="geometry" />
        </mxCell>
        <mxCell id="Xs8UQ6cBIhTteWRhh0SS-9" value="点击需要查询的功能" style="rounded=0;whiteSpace=wrap;html=1;" parent="1" vertex="1">
          <mxGeometry x="200" y="200" width="120" height="60" as="geometry" />
        </mxCell>
        <mxCell id="Xs8UQ6cBIhTteWRhh0SS-13" value="" style="edgeStyle=orthogonalEdgeStyle;rounded=0;orthogonalLoop=1;jettySize=auto;html=1;" parent="1" source="Xs8UQ6cBIhTteWRhh0SS-11" target="Xs8UQ6cBIhTteWRhh0SS-12" edge="1">
          <mxGeometry relative="1" as="geometry" />
        </mxCell>
        <mxCell id="Xs8UQ6cBIhTteWRhh0SS-16" value="" style="edgeStyle=orthogonalEdgeStyle;rounded=0;orthogonalLoop=1;jettySize=auto;html=1;" parent="1" source="Xs8UQ6cBIhTteWRhh0SS-11" target="Xs8UQ6cBIhTteWRhh0SS-15" edge="1">
          <mxGeometry relative="1" as="geometry" />
        </mxCell>
        <mxCell id="Xs8UQ6cBIhTteWRhh0SS-11" value="是否在微端操作" style="rhombus;whiteSpace=wrap;html=1;" parent="1" vertex="1">
          <mxGeometry x="410" y="195" width="130" height="70" as="geometry" />
        </mxCell>
        <mxCell id="Xs8UQ6cBIhTteWRhh0SS-22" value="" style="edgeStyle=orthogonalEdgeStyle;rounded=0;orthogonalLoop=1;jettySize=auto;html=1;" parent="1" source="Xs8UQ6cBIhTteWRhh0SS-12" edge="1">
          <mxGeometry relative="1" as="geometry">
            <mxPoint x="845" y="230" as="targetPoint" />
          </mxGeometry>
        </mxCell>
        <mxCell id="Xs8UQ6cBIhTteWRhh0SS-12" value="" style="whiteSpace=wrap;html=1;" parent="1" vertex="1">
          <mxGeometry x="625" y="200" width="120" height="60" as="geometry" />
        </mxCell>
        <mxCell id="Xs8UQ6cBIhTteWRhh0SS-20" value="" style="edgeStyle=orthogonalEdgeStyle;rounded=0;orthogonalLoop=1;jettySize=auto;html=1;" parent="1" source="Xs8UQ6cBIhTteWRhh0SS-15" target="Xs8UQ6cBIhTteWRhh0SS-19" edge="1">
          <mxGeometry relative="1" as="geometry" />
        </mxCell>
        <mxCell id="Xs8UQ6cBIhTteWRhh0SS-15" value="提示需要在微端操作该功能" style="whiteSpace=wrap;html=1;" parent="1" vertex="1">
          <mxGeometry x="415" y="350" width="120" height="60" as="geometry" />
        </mxCell>
        <mxCell id="Xs8UQ6cBIhTteWRhh0SS-17" value="否" style="text;html=1;align=center;verticalAlign=middle;resizable=0;points=[];autosize=1;strokeColor=none;fillColor=none;" parent="1" vertex="1">
          <mxGeometry x="475" y="290" width="30" height="20" as="geometry" />
        </mxCell>
        <mxCell id="Xs8UQ6cBIhTteWRhh0SS-18" value="是" style="text;html=1;align=center;verticalAlign=middle;resizable=0;points=[];autosize=1;strokeColor=none;fillColor=none;" parent="1" vertex="1">
          <mxGeometry x="555" y="200" width="30" height="20" as="geometry" />
        </mxCell>
        <mxCell id="Xs8UQ6cBIhTteWRhh0SS-19" value="结束" style="rounded=1;whiteSpace=wrap;html=1;" parent="1" vertex="1">
          <mxGeometry x="415" y="490" width="120" height="60" as="geometry" />
        </mxCell>
        <mxCell id="Xs8UQ6cBIhTteWRhh0SS-25" value="" style="edgeStyle=orthogonalEdgeStyle;rounded=0;orthogonalLoop=1;jettySize=auto;html=1;" parent="1" source="Xs8UQ6cBIhTteWRhh0SS-23" target="Xs8UQ6cBIhTteWRhh0SS-24" edge="1">
          <mxGeometry relative="1" as="geometry" />
        </mxCell>
        <mxCell id="Xs8UQ6cBIhTteWRhh0SS-27" value="" style="edgeStyle=orthogonalEdgeStyle;rounded=0;orthogonalLoop=1;jettySize=auto;html=1;" parent="1" source="Xs8UQ6cBIhTteWRhh0SS-23" target="Xs8UQ6cBIhTteWRhh0SS-26" edge="1">
          <mxGeometry relative="1" as="geometry" />
        </mxCell>
        <mxCell id="Xs8UQ6cBIhTteWRhh0SS-23" value="是否下载网厅客户端" style="rhombus;whiteSpace=wrap;html=1;" parent="1" vertex="1">
          <mxGeometry x="850" y="195" width="130" height="70" as="geometry" />
        </mxCell>
        <mxCell id="Xs8UQ6cBIhTteWRhh0SS-24" value="" style="whiteSpace=wrap;html=1;" parent="1" vertex="1">
          <mxGeometry x="1065" y="200" width="120" height="60" as="geometry" />
        </mxCell>
        <mxCell id="Xs8UQ6cBIhTteWRhh0SS-26" value="提示需求下载客户端" style="whiteSpace=wrap;html=1;" parent="1" vertex="1">
          <mxGeometry x="855" y="350" width="120" height="60" as="geometry" />
        </mxCell>
        <mxCell id="Xs8UQ6cBIhTteWRhh0SS-28" value="否" style="text;html=1;align=center;verticalAlign=middle;resizable=0;points=[];autosize=1;strokeColor=none;fillColor=none;" parent="1" vertex="1">
          <mxGeometry x="925" y="290" width="30" height="20" as="geometry" />
        </mxCell>
        <mxCell id="Xs8UQ6cBIhTteWRhh0SS-29" value="是" style="text;html=1;align=center;verticalAlign=middle;resizable=0;points=[];autosize=1;strokeColor=none;fillColor=none;" parent="1" vertex="1">
          <mxGeometry x="1000" y="210" width="30" height="20" as="geometry" />
        </mxCell>
        <mxCell id="Xs8UQ6cBIhTteWRhh0SS-32" style="edgeStyle=orthogonalEdgeStyle;rounded=0;orthogonalLoop=1;jettySize=auto;html=1;" parent="1" source="Xs8UQ6cBIhTteWRhh0SS-30" target="Xs8UQ6cBIhTteWRhh0SS-31" edge="1">
          <mxGeometry relative="1" as="geometry" />
        </mxCell>
        <mxCell id="Xs8UQ6cBIhTteWRhh0SS-30" value="开始" style="rounded=1;whiteSpace=wrap;html=1;" parent="1" vertex="1">
          <mxGeometry x="10" y="700" width="120" height="60" as="geometry" />
        </mxCell>
        <mxCell id="Xs8UQ6cBIhTteWRhh0SS-34" value="" style="edgeStyle=orthogonalEdgeStyle;rounded=0;orthogonalLoop=1;jettySize=auto;html=1;" parent="1" source="Xs8UQ6cBIhTteWRhh0SS-31" target="Xs8UQ6cBIhTteWRhh0SS-33" edge="1">
          <mxGeometry relative="1" as="geometry" />
        </mxCell>
        <mxCell id="Xs8UQ6cBIhTteWRhh0SS-31" value="根据区域code查询常用功能" style="rounded=0;whiteSpace=wrap;html=1;" parent="1" vertex="1">
          <mxGeometry x="200" y="700" width="120" height="60" as="geometry" />
        </mxCell>
        <mxCell id="Xs8UQ6cBIhTteWRhh0SS-36" value="" style="edgeStyle=orthogonalEdgeStyle;rounded=0;orthogonalLoop=1;jettySize=auto;html=1;" parent="1" source="Xs8UQ6cBIhTteWRhh0SS-33" target="Xs8UQ6cBIhTteWRhh0SS-35" edge="1">
          <mxGeometry relative="1" as="geometry" />
        </mxCell>
        <mxCell id="Xs8UQ6cBIhTteWRhh0SS-38" value="" style="edgeStyle=orthogonalEdgeStyle;rounded=0;orthogonalLoop=1;jettySize=auto;html=1;" parent="1" source="Xs8UQ6cBIhTteWRhh0SS-33" target="Xs8UQ6cBIhTteWRhh0SS-37" edge="1">
          <mxGeometry relative="1" as="geometry" />
        </mxCell>
        <mxCell id="Xs8UQ6cBIhTteWRhh0SS-33" value="判断该地区是否开通&lt;br&gt;常用功能" style="rhombus;whiteSpace=wrap;html=1;rounded=0;" parent="1" vertex="1">
          <mxGeometry x="420" y="690" width="160" height="80" as="geometry" />
        </mxCell>
        <mxCell id="Xs8UQ6cBIhTteWRhh0SS-43" style="edgeStyle=orthogonalEdgeStyle;rounded=0;orthogonalLoop=1;jettySize=auto;html=1;" parent="1" source="Xs8UQ6cBIhTteWRhh0SS-35" edge="1">
          <mxGeometry relative="1" as="geometry">
            <mxPoint x="750" y="850" as="targetPoint" />
          </mxGeometry>
        </mxCell>
        <mxCell id="Xs8UQ6cBIhTteWRhh0SS-35" value="获取该地区具体常用功能" style="whiteSpace=wrap;html=1;rounded=0;" parent="1" vertex="1">
          <mxGeometry x="680" y="700" width="140" height="60" as="geometry" />
        </mxCell>
        <mxCell id="Xs8UQ6cBIhTteWRhh0SS-44" style="edgeStyle=orthogonalEdgeStyle;rounded=0;orthogonalLoop=1;jettySize=auto;html=1;" parent="1" source="Xs8UQ6cBIhTteWRhh0SS-37" edge="1">
          <mxGeometry relative="1" as="geometry">
            <mxPoint x="680" y="890" as="targetPoint" />
          </mxGeometry>
        </mxCell>
        <mxCell id="Xs8UQ6cBIhTteWRhh0SS-37" value="提示该地区未配置常用功能" style="rounded=0;whiteSpace=wrap;html=1;" parent="1" vertex="1">
          <mxGeometry x="440" y="860" width="120" height="60" as="geometry" />
        </mxCell>
        <mxCell id="Xs8UQ6cBIhTteWRhh0SS-39" value="是" style="text;html=1;align=center;verticalAlign=middle;resizable=0;points=[];autosize=1;strokeColor=none;fillColor=none;" parent="1" vertex="1">
          <mxGeometry x="595" y="700" width="30" height="20" as="geometry" />
        </mxCell>
        <mxCell id="Xs8UQ6cBIhTteWRhh0SS-40" value="否" style="text;html=1;align=center;verticalAlign=middle;resizable=0;points=[];autosize=1;strokeColor=none;fillColor=none;" parent="1" vertex="1">
          <mxGeometry x="510" y="790" width="30" height="20" as="geometry" />
        </mxCell>
        <mxCell id="Xs8UQ6cBIhTteWRhh0SS-41" value="结束" style="rounded=1;whiteSpace=wrap;html=1;" parent="1" vertex="1">
          <mxGeometry x="690" y="860" width="120" height="60" as="geometry" />
        </mxCell>
        <mxCell id="TA9cXW273BF9sfZA5clH-228" style="edgeStyle=orthogonalEdgeStyle;rounded=0;orthogonalLoop=1;jettySize=auto;html=1;fontColor=#000000;" edge="1" parent="1" source="TA9cXW273BF9sfZA5clH-1" target="TA9cXW273BF9sfZA5clH-224">
          <mxGeometry relative="1" as="geometry" />
        </mxCell>
        <mxCell id="TA9cXW273BF9sfZA5clH-1" value="开始" style="rounded=1;whiteSpace=wrap;html=1;" vertex="1" parent="1">
          <mxGeometry x="-233" y="1044" width="120" height="60" as="geometry" />
        </mxCell>
        <mxCell id="TA9cXW273BF9sfZA5clH-6" value="分页获取已读/未读的消息列表" style="whiteSpace=wrap;html=1;rounded=0;" vertex="1" parent="1">
          <mxGeometry x="669" y="1044" width="120" height="60" as="geometry" />
        </mxCell>
        <mxCell id="TA9cXW273BF9sfZA5clH-16" style="edgeStyle=orthogonalEdgeStyle;rounded=0;orthogonalLoop=1;jettySize=auto;html=1;entryX=0;entryY=0.5;entryDx=0;entryDy=0;" edge="1" parent="1" source="TA9cXW273BF9sfZA5clH-17" target="TA9cXW273BF9sfZA5clH-19">
          <mxGeometry relative="1" as="geometry" />
        </mxCell>
        <mxCell id="TA9cXW273BF9sfZA5clH-17" value="开始" style="rounded=1;whiteSpace=wrap;html=1;" vertex="1" parent="1">
          <mxGeometry x="-101" y="1438" width="120" height="60" as="geometry" />
        </mxCell>
        <mxCell id="TA9cXW273BF9sfZA5clH-18" value="" style="edgeStyle=orthogonalEdgeStyle;rounded=0;orthogonalLoop=1;jettySize=auto;html=1;" edge="1" parent="1" source="TA9cXW273BF9sfZA5clH-19">
          <mxGeometry relative="1" as="geometry">
            <mxPoint x="424" y="1468" as="targetPoint" />
          </mxGeometry>
        </mxCell>
        <mxCell id="TA9cXW273BF9sfZA5clH-19" value="&lt;span&gt;查询校验&lt;/span&gt;&lt;br&gt;&lt;span&gt;该企业下对应部门的某条异常消息&lt;/span&gt;" style="rounded=0;whiteSpace=wrap;html=1;" vertex="1" parent="1">
          <mxGeometry x="217" y="1438" width="120" height="60" as="geometry" />
        </mxCell>
        <mxCell id="TA9cXW273BF9sfZA5clH-39" style="edgeStyle=orthogonalEdgeStyle;rounded=0;orthogonalLoop=1;jettySize=auto;html=1;" edge="1" parent="1" source="TA9cXW273BF9sfZA5clH-21">
          <mxGeometry relative="1" as="geometry">
            <mxPoint x="1225" y="1462" as="targetPoint" />
          </mxGeometry>
        </mxCell>
        <mxCell id="TA9cXW273BF9sfZA5clH-41" style="edgeStyle=orthogonalEdgeStyle;rounded=0;orthogonalLoop=1;jettySize=auto;html=1;" edge="1" parent="1">
          <mxGeometry relative="1" as="geometry">
            <mxPoint x="729" y="1963" as="targetPoint" />
            <mxPoint x="729" y="1897" as="sourcePoint" />
          </mxGeometry>
        </mxCell>
        <mxCell id="TA9cXW273BF9sfZA5clH-52" style="edgeStyle=orthogonalEdgeStyle;rounded=0;orthogonalLoop=1;jettySize=auto;html=1;" edge="1" parent="1" source="TA9cXW273BF9sfZA5clH-21">
          <mxGeometry relative="1" as="geometry">
            <mxPoint x="1032" y="1606" as="targetPoint" />
          </mxGeometry>
        </mxCell>
        <mxCell id="TA9cXW273BF9sfZA5clH-21" value="判断消息是否更新成功" style="rhombus;whiteSpace=wrap;html=1;rounded=0;" vertex="1" parent="1">
          <mxGeometry x="947" y="1422" width="170" height="80" as="geometry" />
        </mxCell>
        <mxCell id="TA9cXW273BF9sfZA5clH-40" style="edgeStyle=orthogonalEdgeStyle;rounded=0;orthogonalLoop=1;jettySize=auto;html=1;" edge="1" parent="1" source="TA9cXW273BF9sfZA5clH-22" target="TA9cXW273BF9sfZA5clH-21">
          <mxGeometry relative="1" as="geometry" />
        </mxCell>
        <mxCell id="TA9cXW273BF9sfZA5clH-22" value="更新消息状态为已读" style="whiteSpace=wrap;html=1;rounded=0;" vertex="1" parent="1">
          <mxGeometry x="747" y="1432" width="120" height="60" as="geometry" />
        </mxCell>
        <mxCell id="TA9cXW273BF9sfZA5clH-24" value="是" style="text;html=1;align=center;verticalAlign=middle;resizable=0;points=[];autosize=1;strokeColor=none;fillColor=none;" vertex="1" parent="1">
          <mxGeometry x="1158" y="1444" width="22" height="18" as="geometry" />
        </mxCell>
        <mxCell id="TA9cXW273BF9sfZA5clH-27" value="结束" style="rounded=1;whiteSpace=wrap;html=1;" vertex="1" parent="1">
          <mxGeometry x="1231" y="1434" width="120" height="60" as="geometry" />
        </mxCell>
        <mxCell id="TA9cXW273BF9sfZA5clH-29" value="结束" style="rounded=1;whiteSpace=wrap;html=1;" vertex="1" parent="1">
          <mxGeometry x="672" y="1973" width="120" height="60" as="geometry" />
        </mxCell>
        <mxCell id="TA9cXW273BF9sfZA5clH-31" value="否" style="text;html=1;align=center;verticalAlign=middle;resizable=0;points=[];autosize=1;strokeColor=none;fillColor=none;" vertex="1" parent="1">
          <mxGeometry x="735" y="1918" width="22" height="18" as="geometry" />
        </mxCell>
        <mxCell id="TA9cXW273BF9sfZA5clH-49" style="edgeStyle=orthogonalEdgeStyle;rounded=0;orthogonalLoop=1;jettySize=auto;html=1;" edge="1" parent="1" source="TA9cXW273BF9sfZA5clH-35">
          <mxGeometry relative="1" as="geometry">
            <mxPoint x="-43" y="1871" as="targetPoint" />
          </mxGeometry>
        </mxCell>
        <mxCell id="TA9cXW273BF9sfZA5clH-35" value="开始" style="rounded=1;whiteSpace=wrap;html=1;" vertex="1" parent="1">
          <mxGeometry x="-305" y="1841" width="120" height="60" as="geometry" />
        </mxCell>
        <mxCell id="TA9cXW273BF9sfZA5clH-247" style="edgeStyle=orthogonalEdgeStyle;rounded=0;orthogonalLoop=1;jettySize=auto;html=1;fontColor=#000000;" edge="1" parent="1" source="TA9cXW273BF9sfZA5clH-36">
          <mxGeometry relative="1" as="geometry">
            <mxPoint x="193.66666666666652" y="1864" as="targetPoint" />
          </mxGeometry>
        </mxCell>
        <mxCell id="TA9cXW273BF9sfZA5clH-36" value="&lt;span&gt;查询校验&lt;/span&gt;&lt;br&gt;&lt;span&gt;该企业下对应部门的所有已读异常消息&lt;/span&gt;" style="rounded=0;whiteSpace=wrap;html=1;" vertex="1" parent="1">
          <mxGeometry x="-25" y="1834" width="120" height="60" as="geometry" />
        </mxCell>
        <mxCell id="TA9cXW273BF9sfZA5clH-48" style="edgeStyle=orthogonalEdgeStyle;rounded=0;orthogonalLoop=1;jettySize=auto;html=1;entryX=0;entryY=0.5;entryDx=0;entryDy=0;" edge="1" parent="1" source="TA9cXW273BF9sfZA5clH-42" target="TA9cXW273BF9sfZA5clH-44">
          <mxGeometry relative="1" as="geometry" />
        </mxCell>
        <mxCell id="TA9cXW273BF9sfZA5clH-42" value="批量逻辑删除消息" style="whiteSpace=wrap;html=1;rounded=0;" vertex="1" parent="1">
          <mxGeometry x="453" y="1827" width="120" height="60" as="geometry" />
        </mxCell>
        <mxCell id="TA9cXW273BF9sfZA5clH-44" value="判断消息是否删除成功" style="rhombus;whiteSpace=wrap;html=1;rounded=0;" vertex="1" parent="1">
          <mxGeometry x="644" y="1817" width="170" height="80" as="geometry" />
        </mxCell>
        <mxCell id="TA9cXW273BF9sfZA5clH-45" style="edgeStyle=orthogonalEdgeStyle;rounded=0;orthogonalLoop=1;jettySize=auto;html=1;" edge="1" parent="1">
          <mxGeometry relative="1" as="geometry">
            <mxPoint x="922" y="1857" as="targetPoint" />
            <mxPoint x="814" y="1857" as="sourcePoint" />
          </mxGeometry>
        </mxCell>
        <mxCell id="TA9cXW273BF9sfZA5clH-46" value="是" style="text;html=1;align=center;verticalAlign=middle;resizable=0;points=[];autosize=1;strokeColor=none;fillColor=none;" vertex="1" parent="1">
          <mxGeometry x="855" y="1839" width="22" height="18" as="geometry" />
        </mxCell>
        <mxCell id="TA9cXW273BF9sfZA5clH-47" value="结束" style="rounded=1;whiteSpace=wrap;html=1;" vertex="1" parent="1">
          <mxGeometry x="923" y="1827" width="120" height="60" as="geometry" />
        </mxCell>
        <mxCell id="TA9cXW273BF9sfZA5clH-50" value="结束" style="rounded=1;whiteSpace=wrap;html=1;" vertex="1" parent="1">
          <mxGeometry x="975" y="1606" width="120" height="60" as="geometry" />
        </mxCell>
        <mxCell id="TA9cXW273BF9sfZA5clH-51" value="否" style="text;html=1;align=center;verticalAlign=middle;resizable=0;points=[];autosize=1;strokeColor=none;fillColor=none;" vertex="1" parent="1">
          <mxGeometry x="1033" y="1536" width="22" height="18" as="geometry" />
        </mxCell>
        <mxCell id="TA9cXW273BF9sfZA5clH-62" value="" style="edgeStyle=orthogonalEdgeStyle;rounded=0;orthogonalLoop=1;jettySize=auto;html=1;" edge="1" parent="1" source="TA9cXW273BF9sfZA5clH-58" target="TA9cXW273BF9sfZA5clH-61">
          <mxGeometry relative="1" as="geometry" />
        </mxCell>
        <mxCell id="TA9cXW273BF9sfZA5clH-58" value="定义切面监视器&lt;br&gt;" style="rounded=0;whiteSpace=wrap;html=1;gradientColor=none;" vertex="1" parent="1">
          <mxGeometry x="52" y="2199" width="245" height="52" as="geometry" />
        </mxCell>
        <mxCell id="TA9cXW273BF9sfZA5clH-59" value="&lt;pre style=&quot;color: rgb(169 , 183 , 198) ; font-family: &amp;#34;jetbrains mono&amp;#34; , monospace ; font-size: 10.5pt&quot;&gt;&lt;pre style=&quot;font-family: &amp;#34;jetbrains mono&amp;#34; , monospace ; font-size: 10.5pt&quot;&gt;TaskStateFinishMonitorAspect&lt;/pre&gt;&lt;/pre&gt;" style="text;html=1;align=center;verticalAlign=middle;resizable=0;points=[];autosize=1;strokeColor=none;fillColor=none;" vertex="1" parent="1">
          <mxGeometry x="48" y="2218" width="245" height="46" as="geometry" />
        </mxCell>
        <mxCell id="TA9cXW273BF9sfZA5clH-65" value="" style="edgeStyle=orthogonalEdgeStyle;rounded=0;orthogonalLoop=1;jettySize=auto;html=1;" edge="1" parent="1" source="TA9cXW273BF9sfZA5clH-61" target="TA9cXW273BF9sfZA5clH-64">
          <mxGeometry relative="1" as="geometry" />
        </mxCell>
        <mxCell id="TA9cXW273BF9sfZA5clH-61" value="根据监控配置监控业务类型" style="whiteSpace=wrap;html=1;rounded=0;gradientColor=none;" vertex="1" parent="1">
          <mxGeometry x="439.5" y="2195" width="120" height="60" as="geometry" />
        </mxCell>
        <mxCell id="TA9cXW273BF9sfZA5clH-68" value="" style="edgeStyle=orthogonalEdgeStyle;rounded=0;orthogonalLoop=1;jettySize=auto;html=1;" edge="1" parent="1" source="TA9cXW273BF9sfZA5clH-64" target="TA9cXW273BF9sfZA5clH-67">
          <mxGeometry relative="1" as="geometry" />
        </mxCell>
        <mxCell id="TA9cXW273BF9sfZA5clH-64" value="发送任务完成的消息" style="whiteSpace=wrap;html=1;rounded=0;gradientColor=none;" vertex="1" parent="1">
          <mxGeometry x="740" y="2195" width="120" height="60" as="geometry" />
        </mxCell>
        <mxCell id="TA9cXW273BF9sfZA5clH-66" value="send()" style="text;html=1;align=center;verticalAlign=middle;resizable=0;points=[];autosize=1;strokeColor=none;fillColor=none;" vertex="1" parent="1">
          <mxGeometry x="613" y="2200" width="44" height="18" as="geometry" />
        </mxCell>
        <mxCell id="TA9cXW273BF9sfZA5clH-67" value="&lt;pre style=&quot;color: rgb(0 , 0 , 0) ; font-style: normal ; font-weight: 400 ; letter-spacing: normal ; text-align: left ; text-indent: 0px ; text-transform: none ; word-spacing: 0px ; font-family: &amp;#34;jetbrains mono&amp;#34; , monospace ; font-size: 10.5pt&quot;&gt;set 任务完成消息&lt;/pre&gt;" style="whiteSpace=wrap;html=1;rounded=0;gradientColor=none;" vertex="1" parent="1">
          <mxGeometry x="1129" y="2195" width="265" height="61" as="geometry" />
        </mxCell>
        <mxCell id="TA9cXW273BF9sfZA5clH-69" value="&lt;pre style=&quot;background-color: #2b2b2b ; color: #a9b7c6 ; font-family: &amp;#34;jetbrains mono&amp;#34; , monospace ; font-size: 10.5pt&quot;&gt;&lt;pre style=&quot;color: rgb(0 , 0 , 0) ; background-color: rgb(255 , 255 , 255) ; text-align: left ; font-family: &amp;#34;jetbrains mono&amp;#34; , monospace ; font-size: 10.5pt&quot;&gt;TaskStateFinishMessageMO&lt;/pre&gt;&lt;/pre&gt;" style="text;html=1;align=center;verticalAlign=middle;resizable=0;points=[];autosize=1;strokeColor=none;fillColor=none;" vertex="1" parent="1">
          <mxGeometry x="886" y="2186" width="212" height="46" as="geometry" />
        </mxCell>
        <mxCell id="TA9cXW273BF9sfZA5clH-71" value="&lt;pre style=&quot;font-family: &amp;#34;jetbrains mono&amp;#34; , monospace ; font-size: 10.5pt&quot;&gt;&lt;pre style=&quot;font-family: &amp;#34;jetbrains mono&amp;#34; , monospace ; font-size: 10.5pt&quot;&gt;&lt;br&gt;&lt;/pre&gt;&lt;/pre&gt;" style="text;whiteSpace=wrap;html=1;labelBackgroundColor=default;" vertex="1" parent="1">
          <mxGeometry x="980.5" y="1992.5" width="222" height="56" as="geometry" />
        </mxCell>
        <mxCell id="TA9cXW273BF9sfZA5clH-74" value="" style="edgeStyle=orthogonalEdgeStyle;rounded=0;orthogonalLoop=1;jettySize=auto;html=1;fontColor=#000000;" edge="1" parent="1" source="TA9cXW273BF9sfZA5clH-72" target="TA9cXW273BF9sfZA5clH-73">
          <mxGeometry relative="1" as="geometry" />
        </mxCell>
        <mxCell id="TA9cXW273BF9sfZA5clH-72" value="&lt;pre style=&quot;color: rgb(169 , 183 , 198) ; font-family: &amp;#34;jetbrains mono&amp;#34; , monospace ; font-size: 10.5pt&quot;&gt;&lt;span style=&quot;background-color: rgb(255 , 255 , 255)&quot;&gt;sendTaskStateFinishMessage（）&lt;/span&gt;&lt;/pre&gt;" style="text;whiteSpace=wrap;html=1;fontColor=#000000;" vertex="1" parent="1">
          <mxGeometry x="1134" y="2213" width="239" height="56" as="geometry" />
        </mxCell>
        <mxCell id="TA9cXW273BF9sfZA5clH-73" value="&lt;span style=&quot;background-color: rgb(255 , 255 , 255)&quot;&gt;接受消息处理消息&lt;br&gt;&lt;/span&gt;&lt;pre style=&quot;color: rgb(169 , 183 , 198) ; font-family: &amp;#34;jetbrains mono&amp;#34; , monospace ; font-size: 10.5pt&quot;&gt;&lt;span style=&quot;background-color: rgb(255 , 255 , 255)&quot;&gt;TaskFinishConsumer. &lt;span style=&quot;font-family: &amp;#34;jetbrains mono&amp;#34; , monospace ; font-size: 10.5pt ; color: rgb(255 , 198 , 109)&quot;&gt;handleMessage(&lt;/span&gt;message)&lt;/span&gt;&lt;/pre&gt;" style="whiteSpace=wrap;html=1;labelBackgroundColor=#FFFFFF;fontColor=#000000;gradientColor=none;" vertex="1" parent="1">
          <mxGeometry x="1046" y="2401" width="415" height="67" as="geometry" />
        </mxCell>
        <mxCell id="TA9cXW273BF9sfZA5clH-75" value="&lt;pre style=&quot;color: rgb(169 , 183 , 198) ; font-family: &amp;#34;jetbrains mono&amp;#34; , monospace ; font-size: 10.5pt&quot;&gt;&lt;span style=&quot;background-color: rgb(255 , 255 , 255)&quot;&gt;topic = MessageConstants.&lt;span style=&quot;color: rgb(152 , 118 , 170) ; font-style: italic&quot;&gt;TASK_STATE_FINISH_TOPIC&lt;/span&gt;&lt;/span&gt;&lt;/pre&gt;" style="text;html=1;align=center;verticalAlign=middle;resizable=0;points=[];autosize=1;strokeColor=none;fillColor=none;fontColor=#000000;" vertex="1" parent="1">
          <mxGeometry x="1061" y="2280" width="414" height="46" as="geometry" />
        </mxCell>
        <mxCell id="TA9cXW273BF9sfZA5clH-89" style="edgeStyle=orthogonalEdgeStyle;rounded=0;orthogonalLoop=1;jettySize=auto;html=1;fontColor=#000000;exitX=0.523;exitY=0.477;exitDx=0;exitDy=0;exitPerimeter=0;" edge="1" parent="1" source="TA9cXW273BF9sfZA5clH-81" target="TA9cXW273BF9sfZA5clH-86">
          <mxGeometry relative="1" as="geometry" />
        </mxCell>
        <mxCell id="TA9cXW273BF9sfZA5clH-81" value="切面-任务完成监视器&lt;br&gt;TaskStateFinishMonmitorAspect" style="shape=umlLifeline;perimeter=lifelinePerimeter;whiteSpace=wrap;html=1;container=1;collapsible=0;recursiveResize=0;outlineConnect=0;shadow=0;labelBackgroundColor=#FFFFFF;labelBorderColor=none;fontColor=#000000;gradientColor=none;" vertex="1" parent="1">
          <mxGeometry x="361" y="2663" width="193" height="300" as="geometry" />
        </mxCell>
        <mxCell id="TA9cXW273BF9sfZA5clH-99" value="" style="html=1;points=[];perimeter=orthogonalPerimeter;shadow=0;labelBackgroundColor=#FFFFFF;labelBorderColor=none;fontColor=#000000;gradientColor=none;" vertex="1" parent="TA9cXW273BF9sfZA5clH-81">
          <mxGeometry x="96" y="95" width="10" height="98" as="geometry" />
        </mxCell>
        <mxCell id="TA9cXW273BF9sfZA5clH-106" style="edgeStyle=orthogonalEdgeStyle;rounded=0;orthogonalLoop=1;jettySize=auto;html=1;fontColor=#000000;" edge="1" parent="1" source="TA9cXW273BF9sfZA5clH-86" target="TA9cXW273BF9sfZA5clH-104">
          <mxGeometry relative="1" as="geometry">
            <mxPoint x="1169" y="2806" as="targetPoint" />
            <Array as="points">
              <mxPoint x="1119" y="2806" />
              <mxPoint x="1119" y="2806" />
            </Array>
          </mxGeometry>
        </mxCell>
        <mxCell id="TA9cXW273BF9sfZA5clH-86" value="&lt;span style=&quot;color: rgba(0 , 0 , 0 , 0) ; font-family: monospace ; font-size: 0px&quot;&gt;%3CmxGraphModel%3E%3Croot%3E%3CmxCell%20id%3D%220%22%2F%3E%3CmxCell%20id%3D%221%22%20parent%3D%220%22%2F%3E%3CmxCell%20id%3D%222%22%20value%3D%22%E5%88%87%E9%9D%A2-%E4%BB%BB%E5%8A%A1%E5%AE%8C%E6%88%90%E7%9B%91%E8%A7%86%E5%99%A8%26lt%3Bbr%26gt%3BTaskStateFinishMonmitorAspect%22%20style%3D%22shape%3DumlLifeline%3Bperimeter%3DlifelinePerimeter%3BwhiteSpace%3Dwrap%3Bhtml%3D1%3Bcontainer%3D1%3Bcollapsible%3D0%3BrecursiveResize%3D0%3BoutlineConnect%3D0%3Bshadow%3D0%3BlabelBackgroundColor%3D%23FFFFFF%3BlabelBorderColor%3Dnone%3BfontColor%3D%23000000%3BgradientColor%3Dnone%3B%22%20vertex%3D%221%22%20parent%3D%221%22%3E%3CmxGeometry%20x%3D%22361%22%20y%3D%222663%22%20width%3D%22193%22%20height%3D%22300%22%20as%3D%22geometry%22%2F%3E%3C%2FmxCell%3E%3C%2Froot%3E%3C%2FmxGraphModel%3E&lt;/span&gt;" style="shape=umlLifeline;perimeter=lifelinePerimeter;whiteSpace=wrap;html=1;container=1;collapsible=0;recursiveResize=0;outlineConnect=0;shadow=0;labelBackgroundColor=#FFFFFF;labelBorderColor=none;fontColor=#000000;gradientColor=none;" vertex="1" parent="1">
          <mxGeometry x="743" y="2656" width="215" height="300" as="geometry" />
        </mxCell>
        <mxCell id="TA9cXW273BF9sfZA5clH-88" value="任务处理器&#xa;TaskHandlerProducer" style="text;whiteSpace=wrap;fontColor=#000000;" vertex="1" parent="TA9cXW273BF9sfZA5clH-86">
          <mxGeometry x="35" y="2" width="180" height="56" as="geometry" />
        </mxCell>
        <mxCell id="TA9cXW273BF9sfZA5clH-94" value="" style="html=1;points=[];perimeter=orthogonalPerimeter;shadow=0;labelBackgroundColor=#FFFFFF;labelBorderColor=none;fontColor=#000000;gradientColor=none;" vertex="1" parent="TA9cXW273BF9sfZA5clH-86">
          <mxGeometry x="105" y="149" width="12" height="40" as="geometry" />
        </mxCell>
        <mxCell id="TA9cXW273BF9sfZA5clH-90" value="1、发消息：sendFinishMessage（Task task）" style="text;align=center;verticalAlign=middle;resizable=0;points=[];autosize=1;strokeColor=none;fillColor=none;fontColor=#000000;" vertex="1" parent="1">
          <mxGeometry x="191" y="2731" width="258" height="18" as="geometry" />
        </mxCell>
        <mxCell id="TA9cXW273BF9sfZA5clH-98" style="edgeStyle=orthogonalEdgeStyle;rounded=0;orthogonalLoop=1;jettySize=auto;html=1;fontColor=#000000;exitX=0.485;exitY=0.35;exitDx=0;exitDy=0;exitPerimeter=0;" edge="1" parent="1" source="TA9cXW273BF9sfZA5clH-97" target="TA9cXW273BF9sfZA5clH-81">
          <mxGeometry relative="1" as="geometry">
            <Array as="points">
              <mxPoint x="381" y="2761" />
              <mxPoint x="381" y="2761" />
            </Array>
          </mxGeometry>
        </mxCell>
        <mxCell id="TA9cXW273BF9sfZA5clH-97" value="Actor" style="shape=umlLifeline;perimeter=lifelinePerimeter;whiteSpace=wrap;html=1;container=1;collapsible=0;recursiveResize=0;outlineConnect=0;shadow=0;labelBackgroundColor=#FFFFFF;labelBorderColor=none;fontColor=#000000;gradientColor=none;" vertex="1" parent="1">
          <mxGeometry x="125" y="2656" width="100" height="296" as="geometry" />
        </mxCell>
        <mxCell id="TA9cXW273BF9sfZA5clH-101" value="topic：MessageConstants.TASK_STATE_FINISH_TOPIC)&#xa;&#xa;1、1任务完成消息：sendTaskStateFinishMessage（）" style="text;whiteSpace=wrap;fontColor=#000000;" vertex="1" parent="1">
          <mxGeometry x="488" y="2756" width="319" height="77" as="geometry" />
        </mxCell>
        <mxCell id="TA9cXW273BF9sfZA5clH-103" value="" style="edgeStyle=orthogonalEdgeStyle;rounded=0;orthogonalLoop=1;jettySize=auto;html=1;fontColor=#000000;exitX=0.125;exitY=1.063;exitDx=0;exitDy=0;exitPerimeter=0;dashed=1;" edge="1" parent="1" source="TA9cXW273BF9sfZA5clH-94">
          <mxGeometry relative="1" as="geometry">
            <mxPoint x="470" y="2845" as="targetPoint" />
            <Array as="points">
              <mxPoint x="850" y="2845" />
            </Array>
          </mxGeometry>
        </mxCell>
        <mxCell id="TA9cXW273BF9sfZA5clH-104" value="消费端&#xa;TaskFinishConsumer" style="shape=umlLifeline;perimeter=lifelinePerimeter;whiteSpace=wrap;container=1;collapsible=0;recursiveResize=0;outlineConnect=0;shadow=0;labelBackgroundColor=#FFFFFF;labelBorderColor=none;fontColor=#000000;gradientColor=none;" vertex="1" parent="1">
          <mxGeometry x="1019" y="2648" width="336" height="512" as="geometry" />
        </mxCell>
        <mxCell id="TA9cXW273BF9sfZA5clH-115" value="" style="html=1;points=[];perimeter=orthogonalPerimeter;shadow=0;labelBackgroundColor=#FFFFFF;labelBorderColor=none;fontColor=#000000;gradientColor=none;" vertex="1" parent="TA9cXW273BF9sfZA5clH-104">
          <mxGeometry x="163" y="240" width="10" height="40" as="geometry" />
        </mxCell>
        <mxCell id="TA9cXW273BF9sfZA5clH-116" value="" style="edgeStyle=orthogonalEdgeStyle;html=1;align=left;spacingLeft=2;endArrow=block;rounded=0;entryX=1;entryY=0;dashed=1;fontColor=#000000;exitX=1;exitY=0.5;exitDx=0;exitDy=0;exitPerimeter=0;" edge="1" target="TA9cXW273BF9sfZA5clH-115" parent="TA9cXW273BF9sfZA5clH-104" source="TA9cXW273BF9sfZA5clH-117">
          <mxGeometry relative="1" as="geometry">
            <mxPoint x="86" y="193" as="sourcePoint" />
            <Array as="points">
              <mxPoint x="173" y="193" />
              <mxPoint x="190" y="193" />
              <mxPoint x="190" y="240" />
            </Array>
          </mxGeometry>
        </mxCell>
        <mxCell id="TA9cXW273BF9sfZA5clH-117" value="" style="html=1;points=[];perimeter=orthogonalPerimeter;shadow=0;labelBackgroundColor=#FFFFFF;labelBorderColor=none;fontColor=#000000;gradientColor=none;" vertex="1" parent="TA9cXW273BF9sfZA5clH-104">
          <mxGeometry x="163" y="158" width="10" height="57" as="geometry" />
        </mxCell>
        <mxCell id="TA9cXW273BF9sfZA5clH-110" value="2、处理消息handleMessage（Message message）" style="text;whiteSpace=wrap;fontColor=#000000;" vertex="1" parent="TA9cXW273BF9sfZA5clH-104">
          <mxGeometry x="-142" y="124" width="289" height="62" as="geometry" />
        </mxCell>
        <mxCell id="TA9cXW273BF9sfZA5clH-108" value="&lt;meta charset=&quot;utf-8&quot;&gt;&lt;span style=&quot;color: rgb(0, 0, 0); font-family: helvetica; font-size: 12px; font-style: normal; font-weight: 400; letter-spacing: normal; text-align: left; text-indent: 0px; text-transform: none; word-spacing: 0px; background-color: rgb(255, 255, 255); display: inline; float: none;&quot;&gt;topic：MessageConstants.TASK_STATE_FINISH_TOPIC)&lt;/span&gt;" style="text;whiteSpace=wrap;html=1;fontColor=#000000;" vertex="1" parent="TA9cXW273BF9sfZA5clH-104">
          <mxGeometry x="-156" y="99" width="317" height="61" as="geometry" />
        </mxCell>
        <mxCell id="TA9cXW273BF9sfZA5clH-105" value="&lt;span style=&quot;text-align: left&quot;&gt;TaskFinishPostProcessorHandler&lt;/span&gt;" style="shape=umlLifeline;perimeter=lifelinePerimeter;whiteSpace=wrap;html=1;container=1;collapsible=0;recursiveResize=0;outlineConnect=0;shadow=0;labelBackgroundColor=#FFFFFF;labelBorderColor=none;fontColor=#000000;gradientColor=none;" vertex="1" parent="1">
          <mxGeometry x="1376" y="2648" width="280.5" height="503" as="geometry" />
        </mxCell>
        <mxCell id="TA9cXW273BF9sfZA5clH-130" value="" style="html=1;points=[];perimeter=orthogonalPerimeter;shadow=0;labelBackgroundColor=#FFFFFF;labelBorderColor=none;fontColor=#000000;gradientColor=none;" vertex="1" parent="TA9cXW273BF9sfZA5clH-105">
          <mxGeometry x="133" y="263" width="10" height="80" as="geometry" />
        </mxCell>
        <mxCell id="TA9cXW273BF9sfZA5clH-120" value="&lt;span style=&quot;text-align: left&quot;&gt;查任务taskService.getByAsyncNumber&lt;/span&gt;" style="text;html=1;align=center;verticalAlign=middle;resizable=0;points=[];autosize=1;strokeColor=none;fillColor=none;fontColor=#000000;" vertex="1" parent="1">
          <mxGeometry x="1220" y="2843" width="218" height="18" as="geometry" />
        </mxCell>
        <mxCell id="TA9cXW273BF9sfZA5clH-122" value="2、1任务完成的后置处理逻辑postProcessTaskFinish（）方法" style="text;whiteSpace=wrap;fontColor=#000000;html=1;" vertex="1" parent="1">
          <mxGeometry x="1241" y="2873" width="197" height="56" as="geometry" />
        </mxCell>
        <mxCell id="TA9cXW273BF9sfZA5clH-125" style="edgeStyle=orthogonalEdgeStyle;rounded=0;orthogonalLoop=1;jettySize=auto;html=1;fontColor=#000000;exitX=1;exitY=0.638;exitDx=0;exitDy=0;exitPerimeter=0;" edge="1" parent="1" source="TA9cXW273BF9sfZA5clH-115" target="TA9cXW273BF9sfZA5clH-105">
          <mxGeometry relative="1" as="geometry">
            <Array as="points">
              <mxPoint x="1219" y="2912" />
            </Array>
          </mxGeometry>
        </mxCell>
        <mxCell id="TA9cXW273BF9sfZA5clH-137" style="edgeStyle=orthogonalEdgeStyle;rounded=0;orthogonalLoop=1;jettySize=auto;html=1;fontColor=#000000;" edge="1" parent="1" source="TA9cXW273BF9sfZA5clH-126" target="TA9cXW273BF9sfZA5clH-134">
          <mxGeometry relative="1" as="geometry">
            <Array as="points">
              <mxPoint x="1969" y="3001" />
              <mxPoint x="1969" y="3003" />
            </Array>
          </mxGeometry>
        </mxCell>
        <mxCell id="TA9cXW273BF9sfZA5clH-126" value="&lt;span style=&quot;text-align: left&quot;&gt;AbstractTaskFinishPostProcessorHandler&lt;/span&gt;" style="shape=umlLifeline;perimeter=lifelinePerimeter;whiteSpace=wrap;html=1;container=1;collapsible=0;recursiveResize=0;outlineConnect=0;shadow=0;labelBackgroundColor=#FFFFFF;labelBorderColor=none;fontColor=#000000;gradientColor=none;" vertex="1" parent="1">
          <mxGeometry x="1731" y="2638" width="237" height="504" as="geometry" />
        </mxCell>
        <mxCell id="TA9cXW273BF9sfZA5clH-142" value="" style="html=1;points=[];perimeter=orthogonalPerimeter;shadow=0;labelBackgroundColor=#99FF99;labelBorderColor=none;fontColor=#000000;gradientColor=none;" vertex="1" parent="TA9cXW273BF9sfZA5clH-126">
          <mxGeometry x="116" y="319" width="10" height="80" as="geometry" />
        </mxCell>
        <mxCell id="TA9cXW273BF9sfZA5clH-131" style="edgeStyle=orthogonalEdgeStyle;rounded=0;orthogonalLoop=1;jettySize=auto;html=1;fontColor=#000000;" edge="1" parent="1" source="TA9cXW273BF9sfZA5clH-130" target="TA9cXW273BF9sfZA5clH-126">
          <mxGeometry relative="1" as="geometry">
            <Array as="points">
              <mxPoint x="1680" y="2954" />
              <mxPoint x="1680" y="2954" />
            </Array>
          </mxGeometry>
        </mxCell>
        <mxCell id="TA9cXW273BF9sfZA5clH-132" value="implements-实现接口" style="text;whiteSpace=wrap;fontColor=#000000;" vertex="1" parent="1">
          <mxGeometry x="1542" y="2900" width="129" height="63" as="geometry" />
        </mxCell>
        <mxCell id="TA9cXW273BF9sfZA5clH-133" value="&lt;span style=&quot;text-align: left&quot;&gt;2、1任务完成的后置处理逻辑&lt;br&gt;postProcessTaskFinish（）方法&lt;/span&gt;" style="text;html=1;align=center;verticalAlign=middle;resizable=0;points=[];autosize=1;strokeColor=none;fillColor=none;fontColor=#000000;" vertex="1" parent="1">
          <mxGeometry x="1627" y="2920" width="181" height="32" as="geometry" />
        </mxCell>
        <mxCell id="TA9cXW273BF9sfZA5clH-134" value="BusinessExceptionMessageAddHander" style="shape=umlLifeline;perimeter=lifelinePerimeter;whiteSpace=wrap;container=1;collapsible=0;recursiveResize=0;outlineConnect=0;shadow=0;labelBackgroundColor=#99FF99;labelBorderColor=none;fontColor=#000000;gradientColor=none;" vertex="1" parent="1">
          <mxGeometry x="2028" y="2635.5" width="237" height="467.5" as="geometry" />
        </mxCell>
        <mxCell id="TA9cXW273BF9sfZA5clH-143" value="" style="html=1;points=[];perimeter=orthogonalPerimeter;shadow=0;labelBackgroundColor=#99FF99;labelBorderColor=none;fontColor=#000000;gradientColor=none;" vertex="1" parent="TA9cXW273BF9sfZA5clH-134">
          <mxGeometry x="116" y="338.5" width="10" height="80" as="geometry" />
        </mxCell>
        <mxCell id="TA9cXW273BF9sfZA5clH-144" value="" style="html=1;points=[];perimeter=orthogonalPerimeter;shadow=0;labelBackgroundColor=#99FF99;labelBorderColor=none;fontColor=#000000;gradientColor=none;" vertex="1" parent="TA9cXW273BF9sfZA5clH-134">
          <mxGeometry x="116" y="446.5" width="10" height="40" as="geometry" />
        </mxCell>
        <mxCell id="TA9cXW273BF9sfZA5clH-145" value="3、1添加异常消息addExceptionMessage()" style="edgeStyle=orthogonalEdgeStyle;html=1;align=left;spacingLeft=2;endArrow=block;rounded=0;entryX=1;entryY=0;fontColor=#000000;exitX=1;exitY=0.75;exitDx=0;exitDy=0;exitPerimeter=0;" edge="1" target="TA9cXW273BF9sfZA5clH-144" parent="TA9cXW273BF9sfZA5clH-134" source="TA9cXW273BF9sfZA5clH-143">
          <mxGeometry relative="1" as="geometry">
            <mxPoint x="175" y="407.5" as="sourcePoint" />
            <Array as="points">
              <mxPoint x="175" y="399" />
              <mxPoint x="175" y="397" />
              <mxPoint x="205" y="397" />
              <mxPoint x="205" y="447" />
            </Array>
          </mxGeometry>
        </mxCell>
        <mxCell id="TA9cXW273BF9sfZA5clH-138" value="3、任务完结处理参数postProcess()" style="text;whiteSpace=wrap;fontColor=#000000;html=1;" vertex="1" parent="1">
          <mxGeometry x="1925.5" y="2961" width="141.5" height="56" as="geometry" />
        </mxCell>
        <mxCell id="TA9cXW273BF9sfZA5clH-139" value="extend-继承父类" style="text;html=1;align=center;verticalAlign=middle;resizable=0;points=[];autosize=1;strokeColor=none;fillColor=none;fontColor=#000000;" vertex="1" parent="1">
          <mxGeometry x="1882" y="2922" width="98" height="18" as="geometry" />
        </mxCell>
        <mxCell id="TA9cXW273BF9sfZA5clH-164" value="是否存在异常消息" style="rhombus;whiteSpace=wrap;html=1;shadow=0;labelBackgroundColor=none;labelBorderColor=none;fontColor=#000000;gradientColor=none;" vertex="1" parent="1">
          <mxGeometry x="1744" y="3243.5" width="153" height="70" as="geometry" />
        </mxCell>
        <mxCell id="TA9cXW273BF9sfZA5clH-258" value="" style="edgeStyle=orthogonalEdgeStyle;rounded=0;orthogonalLoop=1;jettySize=auto;html=1;fontColor=#000000;" edge="1" parent="1" source="TA9cXW273BF9sfZA5clH-167" target="TA9cXW273BF9sfZA5clH-257">
          <mxGeometry relative="1" as="geometry" />
        </mxCell>
        <mxCell id="TA9cXW273BF9sfZA5clH-167" value="获取：customer_id&lt;br&gt;dept_id、&lt;br&gt;context、business_id等" style="whiteSpace=wrap;html=1;fontColor=#000000;shadow=0;labelBackgroundColor=none;labelBorderColor=none;gradientColor=none;" vertex="1" parent="1">
          <mxGeometry x="2002" y="3248" width="249.5" height="58.5" as="geometry" />
        </mxCell>
        <mxCell id="TA9cXW273BF9sfZA5clH-149" style="edgeStyle=orthogonalEdgeStyle;rounded=0;orthogonalLoop=1;jettySize=auto;html=1;fontColor=#FFFFFF;" edge="1" parent="1" source="TA9cXW273BF9sfZA5clH-147">
          <mxGeometry relative="1" as="geometry">
            <mxPoint x="419" y="3278.5" as="targetPoint" />
          </mxGeometry>
        </mxCell>
        <mxCell id="TA9cXW273BF9sfZA5clH-147" value="开始" style="rounded=1;whiteSpace=wrap;html=1;shadow=0;labelBackgroundColor=none;labelBorderColor=none;fontColor=#000000;gradientColor=none;" vertex="1" parent="1">
          <mxGeometry x="162" y="3248.5" width="120" height="60" as="geometry" />
        </mxCell>
        <mxCell id="TA9cXW273BF9sfZA5clH-151" value="" style="edgeStyle=orthogonalEdgeStyle;rounded=0;orthogonalLoop=1;jettySize=auto;html=1;fontColor=#000000;" edge="1" parent="1" source="TA9cXW273BF9sfZA5clH-148" target="TA9cXW273BF9sfZA5clH-150">
          <mxGeometry relative="1" as="geometry" />
        </mxCell>
        <mxCell id="TA9cXW273BF9sfZA5clH-148" value="执行业务类型校验方法checkBeforeProcess（）" style="rounded=0;whiteSpace=wrap;shadow=0;labelBackgroundColor=none;labelBorderColor=none;fontColor=#000000;gradientColor=none;" vertex="1" parent="1">
          <mxGeometry x="427" y="3237.5" width="144" height="71" as="geometry" />
        </mxCell>
        <mxCell id="TA9cXW273BF9sfZA5clH-159" value="" style="edgeStyle=orthogonalEdgeStyle;rounded=0;orthogonalLoop=1;jettySize=auto;html=1;fontColor=#000000;" edge="1" parent="1" source="TA9cXW273BF9sfZA5clH-150">
          <mxGeometry relative="1" as="geometry">
            <mxPoint x="869" y="3411.75" as="targetPoint" />
          </mxGeometry>
        </mxCell>
        <mxCell id="TA9cXW273BF9sfZA5clH-255" style="edgeStyle=orthogonalEdgeStyle;rounded=0;orthogonalLoop=1;jettySize=auto;html=1;fontColor=#000000;" edge="1" parent="1" source="TA9cXW273BF9sfZA5clH-150">
          <mxGeometry relative="1" as="geometry">
            <mxPoint x="1159" y="3273.25" as="targetPoint" />
          </mxGeometry>
        </mxCell>
        <mxCell id="TA9cXW273BF9sfZA5clH-150" value="判断业务类型是否含&lt;br&gt;企业职工参保登记/企业职工停保/缴费核定查询&lt;br&gt;/缴费工资调整" style="rhombus;whiteSpace=wrap;fontColor=#000000;rounded=0;shadow=0;labelBackgroundColor=none;labelBorderColor=none;gradientColor=none;html=1;" vertex="1" parent="1">
          <mxGeometry x="704" y="3229" width="330" height="88.5" as="geometry" />
        </mxCell>
        <mxCell id="TA9cXW273BF9sfZA5clH-152" value="根据消费端传入的消息" style="text;html=1;align=center;verticalAlign=middle;resizable=0;points=[];autosize=1;strokeColor=none;fillColor=none;fontColor=#000000;" vertex="1" parent="1">
          <mxGeometry x="284" y="3252.5" width="130" height="18" as="geometry" />
        </mxCell>
        <mxCell id="TA9cXW273BF9sfZA5clH-256" style="edgeStyle=orthogonalEdgeStyle;rounded=0;orthogonalLoop=1;jettySize=auto;html=1;fontColor=#000000;" edge="1" parent="1" source="TA9cXW273BF9sfZA5clH-155">
          <mxGeometry relative="1" as="geometry">
            <mxPoint x="1463" y="3285" as="targetPoint" />
          </mxGeometry>
        </mxCell>
        <mxCell id="TA9cXW273BF9sfZA5clH-155" value="根据异步流水号查询处理完成的任务、和&lt;br&gt;获取任务明细详情&lt;br&gt;查询hc_task、hc_taskDetail" style="whiteSpace=wrap;fontColor=#000000;rounded=0;shadow=0;labelBackgroundColor=none;labelBorderColor=none;gradientColor=none;html=1;" vertex="1" parent="1">
          <mxGeometry x="1170" y="3243" width="141" height="83" as="geometry" />
        </mxCell>
        <mxCell id="TA9cXW273BF9sfZA5clH-157" value="是" style="text;html=1;align=center;verticalAlign=middle;resizable=0;points=[];autosize=1;strokeColor=none;fillColor=none;fontColor=#000000;" vertex="1" parent="1">
          <mxGeometry x="1097" y="3255.5" width="22" height="18" as="geometry" />
        </mxCell>
        <mxCell id="TA9cXW273BF9sfZA5clH-160" value="否" style="text;html=1;align=center;verticalAlign=middle;resizable=0;points=[];autosize=1;strokeColor=none;fillColor=none;fontColor=#000000;" vertex="1" parent="1">
          <mxGeometry x="871" y="3336.5" width="22" height="18" as="geometry" />
        </mxCell>
        <mxCell id="TA9cXW273BF9sfZA5clH-161" value="结束" style="rounded=1;whiteSpace=wrap;html=1;" vertex="1" parent="1">
          <mxGeometry x="812" y="3416.5" width="120" height="60" as="geometry" />
        </mxCell>
        <mxCell id="TA9cXW273BF9sfZA5clH-165" value="结束" style="rounded=1;whiteSpace=wrap;html=1;fontColor=#000000;shadow=0;labelBackgroundColor=none;labelBorderColor=none;gradientColor=none;" vertex="1" parent="1">
          <mxGeometry x="1762.5" y="3392.5" width="120" height="60" as="geometry" />
        </mxCell>
        <mxCell id="TA9cXW273BF9sfZA5clH-166" value="" style="edgeStyle=orthogonalEdgeStyle;rounded=0;orthogonalLoop=1;jettySize=auto;html=1;fontColor=#000000;" edge="1" parent="1" source="TA9cXW273BF9sfZA5clH-164" target="TA9cXW273BF9sfZA5clH-165">
          <mxGeometry relative="1" as="geometry" />
        </mxCell>
        <mxCell id="TA9cXW273BF9sfZA5clH-168" value="" style="edgeStyle=orthogonalEdgeStyle;rounded=0;orthogonalLoop=1;jettySize=auto;html=1;fontColor=#000000;" edge="1" parent="1" source="TA9cXW273BF9sfZA5clH-164" target="TA9cXW273BF9sfZA5clH-167">
          <mxGeometry relative="1" as="geometry" />
        </mxCell>
        <mxCell id="TA9cXW273BF9sfZA5clH-169" value="是" style="text;html=1;align=center;verticalAlign=middle;resizable=0;points=[];autosize=1;strokeColor=none;fillColor=none;fontColor=#000000;" vertex="1" parent="1">
          <mxGeometry x="1934" y="3248" width="22" height="18" as="geometry" />
        </mxCell>
        <mxCell id="TA9cXW273BF9sfZA5clH-170" value="否" style="text;html=1;align=center;verticalAlign=middle;resizable=0;points=[];autosize=1;strokeColor=none;fillColor=none;fontColor=#000000;" vertex="1" parent="1">
          <mxGeometry x="1823" y="3336" width="22" height="18" as="geometry" />
        </mxCell>
        <mxCell id="TA9cXW273BF9sfZA5clH-173" style="edgeStyle=orthogonalEdgeStyle;rounded=0;orthogonalLoop=1;jettySize=auto;html=1;fontColor=#000000;" edge="1" parent="1" source="TA9cXW273BF9sfZA5clH-171">
          <mxGeometry relative="1" as="geometry">
            <mxPoint x="511" y="3810" as="targetPoint" />
          </mxGeometry>
        </mxCell>
        <mxCell id="TA9cXW273BF9sfZA5clH-171" value="开始" style="rounded=1;whiteSpace=wrap;html=1;shadow=0;labelBackgroundColor=none;labelBorderColor=none;fontColor=#000000;gradientColor=none;" vertex="1" parent="1">
          <mxGeometry x="187" y="3780" width="120" height="60" as="geometry" />
        </mxCell>
        <mxCell id="TA9cXW273BF9sfZA5clH-176" style="edgeStyle=orthogonalEdgeStyle;rounded=0;orthogonalLoop=1;jettySize=auto;html=1;fontColor=#000000;" edge="1" parent="1" source="TA9cXW273BF9sfZA5clH-172">
          <mxGeometry relative="1" as="geometry">
            <mxPoint x="738.5" y="3808" as="targetPoint" />
          </mxGeometry>
        </mxCell>
        <mxCell id="TA9cXW273BF9sfZA5clH-172" value="分页查询待办提醒" style="rounded=0;whiteSpace=wrap;html=1;shadow=0;labelBackgroundColor=none;labelBorderColor=none;fontColor=#000000;gradientColor=none;" vertex="1" parent="1">
          <mxGeometry x="515" y="3778" width="120" height="60" as="geometry" />
        </mxCell>
        <mxCell id="TA9cXW273BF9sfZA5clH-174" value="根据&lt;span&gt;customer_id、dept_id&lt;/span&gt;" style="text;html=1;align=center;verticalAlign=middle;resizable=0;points=[];autosize=1;strokeColor=none;fillColor=none;fontColor=#000000;" vertex="1" parent="1">
          <mxGeometry x="333" y="3788" width="151" height="18" as="geometry" />
        </mxCell>
        <mxCell id="TA9cXW273BF9sfZA5clH-178" value="" style="edgeStyle=orthogonalEdgeStyle;rounded=0;orthogonalLoop=1;jettySize=auto;html=1;fontColor=#000000;" edge="1" parent="1" source="TA9cXW273BF9sfZA5clH-175" target="TA9cXW273BF9sfZA5clH-177">
          <mxGeometry relative="1" as="geometry" />
        </mxCell>
        <mxCell id="TA9cXW273BF9sfZA5clH-180" value="" style="edgeStyle=orthogonalEdgeStyle;rounded=0;orthogonalLoop=1;jettySize=auto;html=1;fontColor=#000000;" edge="1" parent="1" source="TA9cXW273BF9sfZA5clH-175" target="TA9cXW273BF9sfZA5clH-179">
          <mxGeometry relative="1" as="geometry" />
        </mxCell>
        <mxCell id="TA9cXW273BF9sfZA5clH-175" value="根据业务类型判断对应的业务&lt;br&gt;是否有待提交的数据" style="rhombus;whiteSpace=wrap;html=1;shadow=0;labelBackgroundColor=none;labelBorderColor=none;fontColor=#000000;gradientColor=none;" vertex="1" parent="1">
          <mxGeometry x="740" y="3760" width="212" height="96" as="geometry" />
        </mxCell>
        <mxCell id="TA9cXW273BF9sfZA5clH-184" style="edgeStyle=orthogonalEdgeStyle;rounded=0;orthogonalLoop=1;jettySize=auto;html=1;fontColor=#000000;" edge="1" parent="1" source="TA9cXW273BF9sfZA5clH-177">
          <mxGeometry relative="1" as="geometry">
            <mxPoint x="1138" y="3950" as="targetPoint" />
          </mxGeometry>
        </mxCell>
        <mxCell id="TA9cXW273BF9sfZA5clH-177" value="返回对应的业务类型和顺序" style="whiteSpace=wrap;html=1;fontColor=#000000;shadow=0;labelBackgroundColor=none;labelBorderColor=none;gradientColor=none;" vertex="1" parent="1">
          <mxGeometry x="1078" y="3778" width="120" height="60" as="geometry" />
        </mxCell>
        <mxCell id="TA9cXW273BF9sfZA5clH-185" style="edgeStyle=orthogonalEdgeStyle;rounded=0;orthogonalLoop=1;jettySize=auto;html=1;fontColor=#000000;" edge="1" parent="1" source="TA9cXW273BF9sfZA5clH-179">
          <mxGeometry relative="1" as="geometry">
            <mxPoint x="1069" y="3984" as="targetPoint" />
          </mxGeometry>
        </mxCell>
        <mxCell id="TA9cXW273BF9sfZA5clH-179" value="返回空" style="whiteSpace=wrap;html=1;fontColor=#000000;shadow=0;labelBackgroundColor=none;labelBorderColor=none;gradientColor=none;" vertex="1" parent="1">
          <mxGeometry x="786" y="3954" width="120" height="60" as="geometry" />
        </mxCell>
        <mxCell id="TA9cXW273BF9sfZA5clH-181" value="是" style="text;html=1;align=center;verticalAlign=middle;resizable=0;points=[];autosize=1;strokeColor=none;fillColor=none;fontColor=#000000;" vertex="1" parent="1">
          <mxGeometry x="988" y="3783" width="22" height="18" as="geometry" />
        </mxCell>
        <mxCell id="TA9cXW273BF9sfZA5clH-182" value="否" style="text;html=1;align=center;verticalAlign=middle;resizable=0;points=[];autosize=1;strokeColor=none;fillColor=none;fontColor=#000000;" vertex="1" parent="1">
          <mxGeometry x="855" y="3891" width="22" height="18" as="geometry" />
        </mxCell>
        <mxCell id="TA9cXW273BF9sfZA5clH-183" value="结束" style="rounded=1;whiteSpace=wrap;html=1;shadow=0;labelBackgroundColor=none;labelBorderColor=none;fontColor=#000000;gradientColor=none;" vertex="1" parent="1">
          <mxGeometry x="1078" y="3954" width="120" height="60" as="geometry" />
        </mxCell>
        <mxCell id="TA9cXW273BF9sfZA5clH-191" style="edgeStyle=orthogonalEdgeStyle;rounded=0;orthogonalLoop=1;jettySize=auto;html=1;fontColor=#000000;" edge="1" parent="1" source="TA9cXW273BF9sfZA5clH-187" target="TA9cXW273BF9sfZA5clH-190">
          <mxGeometry relative="1" as="geometry">
            <Array as="points">
              <mxPoint x="311" y="4300" />
              <mxPoint x="311" y="4300" />
            </Array>
          </mxGeometry>
        </mxCell>
        <mxCell id="TA9cXW273BF9sfZA5clH-187" value="Actor" style="shape=umlLifeline;perimeter=lifelinePerimeter;whiteSpace=wrap;html=1;container=1;collapsible=0;recursiveResize=0;outlineConnect=0;shadow=0;labelBackgroundColor=#FFFFFF;labelBorderColor=none;fontColor=#000000;gradientColor=none;" vertex="1" parent="1">
          <mxGeometry x="175" y="4194" width="100" height="296" as="geometry" />
        </mxCell>
        <mxCell id="TA9cXW273BF9sfZA5clH-216" value="" style="html=1;points=[];perimeter=orthogonalPerimeter;shadow=0;labelBackgroundColor=none;labelBorderColor=none;fontColor=#000000;gradientColor=none;" vertex="1" parent="TA9cXW273BF9sfZA5clH-187">
          <mxGeometry x="45" y="106" width="10" height="161" as="geometry" />
        </mxCell>
        <mxCell id="TA9cXW273BF9sfZA5clH-188" value="hrsscore" style="shape=umlLifeline;perimeter=lifelinePerimeter;whiteSpace=wrap;html=1;container=1;collapsible=0;recursiveResize=0;outlineConnect=0;shadow=0;labelBackgroundColor=#FFFFFF;labelBorderColor=none;fontColor=#000000;gradientColor=none;" vertex="1" parent="1">
          <mxGeometry x="904" y="4187" width="100" height="316" as="geometry" />
        </mxCell>
        <mxCell id="TA9cXW273BF9sfZA5clH-193" value="" style="html=1;points=[];perimeter=orthogonalPerimeter;shadow=0;labelBackgroundColor=none;labelBorderColor=none;fontColor=#000000;gradientColor=none;" vertex="1" parent="TA9cXW273BF9sfZA5clH-188">
          <mxGeometry x="46" y="69" width="10" height="53" as="geometry" />
        </mxCell>
        <mxCell id="TA9cXW273BF9sfZA5clH-196" value="" style="html=1;points=[];perimeter=orthogonalPerimeter;shadow=0;labelBackgroundColor=none;labelBorderColor=none;fontColor=#000000;gradientColor=none;fontStyle=1" vertex="1" parent="TA9cXW273BF9sfZA5clH-188">
          <mxGeometry x="47" y="180" width="8" height="53" as="geometry" />
        </mxCell>
        <mxCell id="TA9cXW273BF9sfZA5clH-197" value="" style="html=1;points=[];perimeter=orthogonalPerimeter;shadow=0;labelBackgroundColor=none;labelBorderColor=none;fontColor=#000000;gradientColor=none;fontStyle=1" vertex="1" parent="TA9cXW273BF9sfZA5clH-188">
          <mxGeometry x="45" y="258" width="10" height="53" as="geometry" />
        </mxCell>
        <mxCell id="TA9cXW273BF9sfZA5clH-189" value="hrssweb" style="shape=umlLifeline;perimeter=lifelinePerimeter;whiteSpace=wrap;html=1;container=1;collapsible=0;recursiveResize=0;outlineConnect=0;shadow=0;labelBackgroundColor=#FFFFFF;labelBorderColor=none;fontColor=#000000;gradientColor=none;" vertex="1" parent="1">
          <mxGeometry x="480" y="4192" width="100" height="338" as="geometry" />
        </mxCell>
        <mxCell id="TA9cXW273BF9sfZA5clH-190" value="" style="html=1;points=[];perimeter=orthogonalPerimeter;shadow=0;labelBackgroundColor=none;labelBorderColor=none;fontColor=#000000;gradientColor=none;" vertex="1" parent="TA9cXW273BF9sfZA5clH-189">
          <mxGeometry x="45" y="68" width="10" height="80" as="geometry" />
        </mxCell>
        <mxCell id="TA9cXW273BF9sfZA5clH-200" value="" style="html=1;points=[];perimeter=orthogonalPerimeter;shadow=0;labelBackgroundColor=none;labelBorderColor=none;fontColor=#000000;gradientColor=none;fontStyle=1" vertex="1" parent="TA9cXW273BF9sfZA5clH-189">
          <mxGeometry x="45" y="175" width="10" height="53" as="geometry" />
        </mxCell>
        <mxCell id="TA9cXW273BF9sfZA5clH-201" value="" style="html=1;points=[];perimeter=orthogonalPerimeter;shadow=0;labelBackgroundColor=none;labelBorderColor=none;fontColor=#000000;gradientColor=none;fontStyle=1" vertex="1" parent="TA9cXW273BF9sfZA5clH-189">
          <mxGeometry x="45" y="258" width="10" height="53" as="geometry" />
        </mxCell>
        <mxCell id="TA9cXW273BF9sfZA5clH-192" value="1、根据customer_id、dept_id&lt;br&gt;&lt;span&gt;分页查询待办提醒&lt;/span&gt;" style="text;html=1;align=center;verticalAlign=middle;resizable=0;points=[];autosize=1;strokeColor=none;fillColor=none;fontColor=#000000;" vertex="1" parent="1">
          <mxGeometry x="235" y="4268" width="170" height="32" as="geometry" />
        </mxCell>
        <mxCell id="TA9cXW273BF9sfZA5clH-202" style="edgeStyle=orthogonalEdgeStyle;rounded=0;orthogonalLoop=1;jettySize=auto;html=1;entryX=-0.3;entryY=0.104;entryDx=0;entryDy=0;entryPerimeter=0;fontColor=#000000;" edge="1" parent="1" source="TA9cXW273BF9sfZA5clH-190" target="TA9cXW273BF9sfZA5clH-193">
          <mxGeometry relative="1" as="geometry">
            <Array as="points">
              <mxPoint x="641" y="4262" />
              <mxPoint x="641" y="4262" />
            </Array>
          </mxGeometry>
        </mxCell>
        <mxCell id="TA9cXW273BF9sfZA5clH-203" value="1、1根据参保业务类型去查询是否存在待提交的数据" style="text;html=1;align=center;verticalAlign=middle;resizable=0;points=[];autosize=1;strokeColor=none;fillColor=none;fontColor=#000000;" vertex="1" parent="1">
          <mxGeometry x="573" y="4241" width="288" height="18" as="geometry" />
        </mxCell>
        <mxCell id="TA9cXW273BF9sfZA5clH-204" style="edgeStyle=orthogonalEdgeStyle;rounded=0;orthogonalLoop=1;jettySize=auto;html=1;fontColor=#000000;exitX=1;exitY=0.142;exitDx=0;exitDy=0;exitPerimeter=0;" edge="1" parent="1" source="TA9cXW273BF9sfZA5clH-200" target="TA9cXW273BF9sfZA5clH-196">
          <mxGeometry relative="1" as="geometry">
            <mxPoint x="873" y="4388" as="targetPoint" />
            <Array as="points">
              <mxPoint x="838" y="4375" />
              <mxPoint x="838" y="4375" />
            </Array>
          </mxGeometry>
        </mxCell>
        <mxCell id="TA9cXW273BF9sfZA5clH-205" value="1、2 根据停保业务类型去查询是否存在待提交的数据" style="text;html=1;align=center;verticalAlign=middle;resizable=0;points=[];autosize=1;strokeColor=none;fillColor=none;fontColor=#000000;" vertex="1" parent="1">
          <mxGeometry x="573" y="4354" width="291" height="18" as="geometry" />
        </mxCell>
        <mxCell id="TA9cXW273BF9sfZA5clH-206" style="edgeStyle=orthogonalEdgeStyle;rounded=0;orthogonalLoop=1;jettySize=auto;html=1;entryX=0.1;entryY=0.217;entryDx=0;entryDy=0;entryPerimeter=0;fontColor=#000000;" edge="1" parent="1" source="TA9cXW273BF9sfZA5clH-201" target="TA9cXW273BF9sfZA5clH-197">
          <mxGeometry relative="1" as="geometry">
            <Array as="points">
              <mxPoint x="631" y="4457" />
              <mxPoint x="631" y="4457" />
            </Array>
          </mxGeometry>
        </mxCell>
        <mxCell id="TA9cXW273BF9sfZA5clH-207" value="&lt;span style=&quot;color: rgb(0 , 0 , 0) ; font-family: &amp;#34;helvetica&amp;#34; ; font-size: 12px ; font-style: normal ; font-weight: 400 ; letter-spacing: normal ; text-align: center ; text-indent: 0px ; text-transform: none ; word-spacing: 0px ; background-color: rgb(255 , 255 , 255) ; display: inline ; float: none&quot;&gt;1、3 根据应收核定业务类型去查询是否存在待提交的数据&lt;/span&gt;" style="text;whiteSpace=wrap;html=1;fontColor=#000000;" vertex="1" parent="1">
          <mxGeometry x="571" y="4432" width="322.5" height="28" as="geometry" />
        </mxCell>
        <mxCell id="TA9cXW273BF9sfZA5clH-208" style="edgeStyle=orthogonalEdgeStyle;rounded=0;orthogonalLoop=1;jettySize=auto;html=1;fontColor=#000000;dashed=1;" edge="1" parent="1" source="TA9cXW273BF9sfZA5clH-193" target="TA9cXW273BF9sfZA5clH-190">
          <mxGeometry relative="1" as="geometry">
            <Array as="points">
              <mxPoint x="849" y="4300" />
              <mxPoint x="849" y="4300" />
            </Array>
          </mxGeometry>
        </mxCell>
        <mxCell id="TA9cXW273BF9sfZA5clH-211" style="edgeStyle=orthogonalEdgeStyle;rounded=0;orthogonalLoop=1;jettySize=auto;html=1;entryX=1.3;entryY=0.915;entryDx=0;entryDy=0;entryPerimeter=0;fontColor=#000000;dashed=1;" edge="1" parent="1" source="TA9cXW273BF9sfZA5clH-196" target="TA9cXW273BF9sfZA5clH-200">
          <mxGeometry relative="1" as="geometry">
            <Array as="points">
              <mxPoint x="850" y="4415" />
              <mxPoint x="850" y="4415" />
            </Array>
          </mxGeometry>
        </mxCell>
        <mxCell id="TA9cXW273BF9sfZA5clH-212" style="edgeStyle=orthogonalEdgeStyle;rounded=0;orthogonalLoop=1;jettySize=auto;html=1;entryX=1.1;entryY=0.896;entryDx=0;entryDy=0;entryPerimeter=0;fontColor=#000000;dashed=1;" edge="1" parent="1" source="TA9cXW273BF9sfZA5clH-197" target="TA9cXW273BF9sfZA5clH-201">
          <mxGeometry relative="1" as="geometry">
            <Array as="points">
              <mxPoint x="851" y="4497" />
              <mxPoint x="851" y="4497" />
            </Array>
          </mxGeometry>
        </mxCell>
        <mxCell id="TA9cXW273BF9sfZA5clH-213" value="返回true/false&amp;nbsp;" style="text;html=1;align=center;verticalAlign=middle;resizable=0;points=[];autosize=1;strokeColor=none;fillColor=none;fontColor=#000000;" vertex="1" parent="1">
          <mxGeometry x="593" y="4283" width="87" height="18" as="geometry" />
        </mxCell>
        <mxCell id="TA9cXW273BF9sfZA5clH-214" value="&lt;meta charset=&quot;utf-8&quot;&gt;&lt;span style=&quot;color: rgb(0, 0, 0); font-family: helvetica; font-size: 12px; font-style: normal; font-weight: 400; letter-spacing: normal; text-align: center; text-indent: 0px; text-transform: none; word-spacing: 0px; background-color: rgb(255, 255, 255); display: inline; float: none;&quot;&gt;返回true/false&amp;nbsp;&lt;/span&gt;" style="text;whiteSpace=wrap;html=1;fontColor=#000000;" vertex="1" parent="1">
          <mxGeometry x="676.5" y="4393" width="97" height="28" as="geometry" />
        </mxCell>
        <mxCell id="TA9cXW273BF9sfZA5clH-215" value="返回true/false&amp;nbsp;" style="text;html=1;align=center;verticalAlign=middle;resizable=0;points=[];autosize=1;strokeColor=none;fillColor=none;fontColor=#000000;" vertex="1" parent="1">
          <mxGeometry x="671" y="4481" width="87" height="18" as="geometry" />
        </mxCell>
        <mxCell id="TA9cXW273BF9sfZA5clH-217" style="edgeStyle=orthogonalEdgeStyle;rounded=0;orthogonalLoop=1;jettySize=auto;html=1;entryX=1;entryY=0.575;entryDx=0;entryDy=0;entryPerimeter=0;dashed=1;fontColor=#000000;" edge="1" parent="1" source="TA9cXW273BF9sfZA5clH-200" target="TA9cXW273BF9sfZA5clH-216">
          <mxGeometry relative="1" as="geometry" />
        </mxCell>
        <mxCell id="TA9cXW273BF9sfZA5clH-218" value="构建返回业务类型列表和顺序" style="text;html=1;align=center;verticalAlign=middle;resizable=0;points=[];autosize=1;strokeColor=none;fillColor=none;fontColor=#000000;" vertex="1" parent="1">
          <mxGeometry x="261" y="4372" width="166" height="18" as="geometry" />
        </mxCell>
        <mxCell id="TA9cXW273BF9sfZA5clH-221" value="" style="rounded=0;whiteSpace=wrap;html=1;shadow=0;labelBackgroundColor=none;labelBorderColor=none;fontColor=#000000;gradientColor=none;" vertex="1" parent="1">
          <mxGeometry x="133" y="4936" width="120" height="60" as="geometry" />
        </mxCell>
        <mxCell id="TA9cXW273BF9sfZA5clH-254" style="edgeStyle=orthogonalEdgeStyle;rounded=0;orthogonalLoop=1;jettySize=auto;html=1;fontColor=#000000;" edge="1" parent="1" source="TA9cXW273BF9sfZA5clH-224">
          <mxGeometry relative="1" as="geometry">
            <mxPoint x="352.3333333333335" y="1074" as="targetPoint" />
          </mxGeometry>
        </mxCell>
        <mxCell id="TA9cXW273BF9sfZA5clH-224" value="查询校验&lt;br&gt;该企业下对应部门的所有已读/未读异常消息" style="rounded=0;whiteSpace=wrap;html=1;shadow=0;labelBackgroundColor=none;labelBorderColor=none;fontColor=#000000;gradientColor=none;" vertex="1" parent="1">
          <mxGeometry x="130" y="1044" width="139" height="60" as="geometry" />
        </mxCell>
        <mxCell id="TA9cXW273BF9sfZA5clH-226" value="&lt;span&gt;根据customer_id、dept_id、viewed&lt;/span&gt;" style="text;html=1;align=center;verticalAlign=middle;resizable=0;points=[];autosize=1;strokeColor=none;fillColor=none;fontColor=#000000;" vertex="1" parent="1">
          <mxGeometry x="-94" y="1046" width="200" height="18" as="geometry" />
        </mxCell>
        <mxCell id="TA9cXW273BF9sfZA5clH-229" value="&lt;span&gt;根据customer_id、dept_id、id&lt;/span&gt;" style="text;html=1;align=center;verticalAlign=middle;resizable=0;points=[];autosize=1;strokeColor=none;fillColor=none;fontColor=#000000;" vertex="1" parent="1">
          <mxGeometry x="22" y="1438" width="172" height="18" as="geometry" />
        </mxCell>
        <mxCell id="TA9cXW273BF9sfZA5clH-231" style="edgeStyle=orthogonalEdgeStyle;rounded=0;orthogonalLoop=1;jettySize=auto;html=1;fontColor=#000000;" edge="1" parent="1" source="TA9cXW273BF9sfZA5clH-230">
          <mxGeometry relative="1" as="geometry">
            <mxPoint x="736" y="1468" as="targetPoint" />
          </mxGeometry>
        </mxCell>
        <mxCell id="TA9cXW273BF9sfZA5clH-230" value="判断该消息是否存在" style="rhombus;whiteSpace=wrap;html=1;rounded=0;" vertex="1" parent="1">
          <mxGeometry x="428" y="1428" width="170" height="80" as="geometry" />
        </mxCell>
        <mxCell id="TA9cXW273BF9sfZA5clH-232" value="是" style="text;html=1;align=center;verticalAlign=middle;resizable=0;points=[];autosize=1;strokeColor=none;fillColor=none;fontColor=#000000;" vertex="1" parent="1">
          <mxGeometry x="631" y="1435" width="22" height="18" as="geometry" />
        </mxCell>
        <mxCell id="TA9cXW273BF9sfZA5clH-233" style="edgeStyle=orthogonalEdgeStyle;rounded=0;orthogonalLoop=1;jettySize=auto;html=1;" edge="1" parent="1">
          <mxGeometry relative="1" as="geometry">
            <mxPoint x="513" y="1612" as="targetPoint" />
            <mxPoint x="513" y="1508" as="sourcePoint" />
            <Array as="points">
              <mxPoint x="513" y="1585" />
              <mxPoint x="513" y="1585" />
            </Array>
          </mxGeometry>
        </mxCell>
        <mxCell id="TA9cXW273BF9sfZA5clH-234" value="结束" style="rounded=1;whiteSpace=wrap;html=1;" vertex="1" parent="1">
          <mxGeometry x="456" y="1612" width="120" height="60" as="geometry" />
        </mxCell>
        <mxCell id="TA9cXW273BF9sfZA5clH-235" value="否" style="text;html=1;align=center;verticalAlign=middle;resizable=0;points=[];autosize=1;strokeColor=none;fillColor=none;" vertex="1" parent="1">
          <mxGeometry x="514" y="1542" width="22" height="18" as="geometry" />
        </mxCell>
        <mxCell id="TA9cXW273BF9sfZA5clH-236" value="&lt;span&gt;根据customer_id、dept_id&lt;/span&gt;" style="text;html=1;align=center;verticalAlign=middle;resizable=0;points=[];autosize=1;strokeColor=none;fillColor=none;fontColor=#000000;" vertex="1" parent="1">
          <mxGeometry x="-181" y="1847" width="151" height="18" as="geometry" />
        </mxCell>
        <mxCell id="TA9cXW273BF9sfZA5clH-246" style="edgeStyle=orthogonalEdgeStyle;rounded=0;orthogonalLoop=1;jettySize=auto;html=1;fontColor=#000000;" edge="1" parent="1" source="TA9cXW273BF9sfZA5clH-240">
          <mxGeometry relative="1" as="geometry">
            <mxPoint x="444.3333333333335" y="1864" as="targetPoint" />
          </mxGeometry>
        </mxCell>
        <mxCell id="TA9cXW273BF9sfZA5clH-240" value="判断该消息是否存在" style="rhombus;whiteSpace=wrap;html=1;rounded=0;" vertex="1" parent="1">
          <mxGeometry x="197" y="1824" width="170" height="80" as="geometry" />
        </mxCell>
        <mxCell id="TA9cXW273BF9sfZA5clH-241" value="是" style="text;html=1;align=center;verticalAlign=middle;resizable=0;points=[];autosize=1;strokeColor=none;fillColor=none;fontColor=#000000;" vertex="1" parent="1">
          <mxGeometry x="400" y="1831" width="22" height="18" as="geometry" />
        </mxCell>
        <mxCell id="TA9cXW273BF9sfZA5clH-242" style="edgeStyle=orthogonalEdgeStyle;rounded=0;orthogonalLoop=1;jettySize=auto;html=1;" edge="1" parent="1">
          <mxGeometry relative="1" as="geometry">
            <mxPoint x="282" y="2008" as="targetPoint" />
            <mxPoint x="282" y="1904" as="sourcePoint" />
            <Array as="points">
              <mxPoint x="282" y="1981" />
              <mxPoint x="282" y="1981" />
            </Array>
          </mxGeometry>
        </mxCell>
        <mxCell id="TA9cXW273BF9sfZA5clH-243" value="结束" style="rounded=1;whiteSpace=wrap;html=1;" vertex="1" parent="1">
          <mxGeometry x="225" y="2008" width="120" height="60" as="geometry" />
        </mxCell>
        <mxCell id="TA9cXW273BF9sfZA5clH-244" value="否" style="text;html=1;align=center;verticalAlign=middle;resizable=0;points=[];autosize=1;strokeColor=none;fillColor=none;" vertex="1" parent="1">
          <mxGeometry x="283" y="1938" width="22" height="18" as="geometry" />
        </mxCell>
        <mxCell id="TA9cXW273BF9sfZA5clH-248" style="edgeStyle=orthogonalEdgeStyle;rounded=0;orthogonalLoop=1;jettySize=auto;html=1;fontColor=#000000;" edge="1" parent="1" source="TA9cXW273BF9sfZA5clH-249">
          <mxGeometry relative="1" as="geometry">
            <mxPoint x="663" y="1074" as="targetPoint" />
          </mxGeometry>
        </mxCell>
        <mxCell id="TA9cXW273BF9sfZA5clH-249" value="判断该消息是否存在" style="rhombus;whiteSpace=wrap;html=1;rounded=0;" vertex="1" parent="1">
          <mxGeometry x="355" y="1034" width="170" height="80" as="geometry" />
        </mxCell>
        <mxCell id="TA9cXW273BF9sfZA5clH-251" style="edgeStyle=orthogonalEdgeStyle;rounded=0;orthogonalLoop=1;jettySize=auto;html=1;" edge="1" parent="1">
          <mxGeometry relative="1" as="geometry">
            <mxPoint x="440" y="1218" as="targetPoint" />
            <mxPoint x="440" y="1114" as="sourcePoint" />
            <Array as="points">
              <mxPoint x="440" y="1191" />
              <mxPoint x="440" y="1191" />
            </Array>
          </mxGeometry>
        </mxCell>
        <mxCell id="TA9cXW273BF9sfZA5clH-252" value="结束" style="rounded=1;whiteSpace=wrap;html=1;" vertex="1" parent="1">
          <mxGeometry x="383" y="1218" width="120" height="60" as="geometry" />
        </mxCell>
        <mxCell id="TA9cXW273BF9sfZA5clH-253" value="否" style="text;html=1;align=center;verticalAlign=middle;resizable=0;points=[];autosize=1;strokeColor=none;fillColor=none;" vertex="1" parent="1">
          <mxGeometry x="441" y="1148" width="22" height="18" as="geometry" />
        </mxCell>
        <mxCell id="TA9cXW273BF9sfZA5clH-257" value="添加到hc_business_exception表" style="whiteSpace=wrap;html=1;fontColor=#000000;shadow=0;labelBackgroundColor=none;labelBorderColor=none;gradientColor=none;" vertex="1" parent="1">
          <mxGeometry x="2353" y="3244.25" width="204" height="62.25" as="geometry" />
        </mxCell>
        <mxCell id="TA9cXW273BF9sfZA5clH-260" style="edgeStyle=orthogonalEdgeStyle;rounded=0;orthogonalLoop=1;jettySize=auto;html=1;fontColor=#000000;" edge="1" parent="1" source="TA9cXW273BF9sfZA5clH-259">
          <mxGeometry relative="1" as="geometry">
            <mxPoint x="1733" y="3281" as="targetPoint" />
          </mxGeometry>
        </mxCell>
        <mxCell id="TA9cXW273BF9sfZA5clH-259" value="&lt;span style=&quot;color: rgb(40 , 44 , 52) ; font-family: , &amp;#34;blinkmacsystemfont&amp;#34; , &amp;#34;helvetica neue&amp;#34; , &amp;#34;helvetica&amp;#34; , &amp;#34;pingfang sc&amp;#34; , &amp;#34;microsoft yahei&amp;#34; , sans-serif ; font-size: 18px ; text-align: justify ; word-spacing: 0.9px ; background-color: rgb(254 , 254 , 254)&quot;&gt;筛选支持单户的地区的异常记录&lt;/span&gt;" style="whiteSpace=wrap;fontColor=#000000;rounded=0;shadow=0;labelBackgroundColor=none;labelBorderColor=none;gradientColor=none;html=1;" vertex="1" parent="1">
          <mxGeometry x="1470" y="3248.5" width="141" height="65" as="geometry" />
        </mxCell>
      </root>
    </mxGraphModel>
  </diagram>
</mxfile>
